<?xml version="1.0" standalone="no"?><!DOCTYPE svg PUBLIC "-//W3C//DTD SVG 1.1//EN" "http://www.w3.org/Graphics/SVG/1.1/DTD/svg11.dtd"><svg t="1705816615427" class="icon" viewBox="0 0 1024 1024" version="1.1" xmlns="http://www.w3.org/2000/svg" p-id="8852" xmlns:xlink="http://www.w3.org/1999/xlink" width="128" height="128"><path d="M914.6 811.6L693 462.6V229.8c30.1-3.6 53.1-28.4 53.1-58.5 0-32.5-27-59-60.4-59h-208c-33.2 0-60.4 26.4-60.4 59 0 27.7 19.3 51.2 46.6 57.4v233.6l-98.8 155.6c-0.5 0.2-0.9 0.6-1.4 0.8V362.2c13.7-2.9 26.2-9.9 35.5-20 10.3-11.3 16.1-25.7 16.1-40.6 0-34.2-29.4-61.9-65.7-61.9H157.8c-36.2 0-65.7 27.8-65.7 61.9 0 14.9 5.7 29.3 16.1 40.6 9.3 10.1 21.8 17.1 35.5 20v443.4c0 56.5 49.3 102.3 110.1 102.3 8.2 0 16.4-1 26.1-3.2 3.8 2.2 7.6 3.2 11.5 3.2h574.3c21.4 0 40.5-11.6 51.2-31 11.1-20.7 10.3-45.7-2.3-65.3zM167.7 315.5h-9.9c-9.7 0-17.6-6.2-17.6-13.8 0-7.6 7.9-13.8 17.6-13.8h191.8c9.7 0 17.6 6.2 17.6 13.8 0 7.6-7.9 13.8-17.6 13.8h-9.9c-13.3 0-24.1 10.8-24.1 24.2v193.7H191.9V339.7c0-13.4-10.8-24.2-24.2-24.2z m706.7 538.3c-1.5 2.8-4.4 6-8.9 6H346.7c11.3-16.4 17.1-35 17.1-54.2V710l29.8-46.9h369.6l110.7 174.5c3.8 5.6 2.8 12.1 0.5 16.2zM644.9 206.1v258.2c-1.2 6 0 12.2 3.3 17.5l84.4 132.9H424.2l84.5-132.9c2.9-4.6 4.1-10 3.6-15.3V206.1c0-13.3-10.8-24.2-24.1-24.2h-10.4c-6.7 0-12.2-4.8-12.2-10.8 0-6 5.4-10.8 12.2-10.8h207.9c6.8 0 12.2 4.8 12.2 10.8 0 6-5.5 10.8-12.2 10.8h-16.8c-13.2 0.1-24 10.9-24 24.2zM315.6 581.4v224.2c0 29.9-27.7 54.2-61.9 54.2s-61.9-24.3-61.9-54.2V581.4h123.8z m0 0" p-id="8853" fill="#d4237a"></path><path d="M741.1 799H713c-8.4 0-15.3 6.9-15.3 15.3v15.6c0 8.4 6.9 15.3 15.3 15.3h28.1c8.4 0 15.3-6.9 15.3-15.3v-15.6c0-8.4-6.9-15.3-15.3-15.3z m-499.3-10.4h-17.1c-8.4 0-15.3 6.9-15.3 15.3v7.5c0 8.4 6.9 15.3 15.3 15.3h17.1c8.4 0 15.3-6.9 15.3-15.3v-7.5c0.1-8.4-6.8-15.3-15.3-15.3z m-17-135.2h17c8.4 0 15.3-6.9 15.3-15.3v-7.5c0-8.4-6.9-15.3-15.3-15.3h-17.1c-8.4 0-15.3 6.9-15.3 15.3v7.5c0 8.5 6.9 15.3 15.4 15.3z m436.6 30.1h-28.1c-8.4 0-15.3 6.9-15.3 15.3v15.6c0 8.4 6.9 15.3 15.3 15.3h28.1c8.4 0 15.3-6.9 15.3-15.3v-15.6c0.1-8.4-6.8-15.3-15.3-15.3z m-172 54.7h-28.1c-8.4 0-15.3 6.9-15.3 15.3v15.6c0 8.4 6.9 15.3 15.3 15.3h28.1c8.4 0 15.3-6.9 15.3-15.3v-15.6c0-8.4-6.9-15.3-15.3-15.3z m-209-36.2h-17.1c-8.4 0-15.3 6.9-15.3 15.3v7.5c0 8.4 6.9 15.3 15.3 15.3h17.1c8.4 0 15.3-6.9 15.3-15.3v-7.5c0-8.4-6.9-15.3-15.3-15.3z m0 0" p-id="8854" fill="#d4237a"></path></svg>