<?xml version="1.0" standalone="no"?><!DOCTYPE svg PUBLIC "-//W3C//DTD SVG 1.1//EN" "http://www.w3.org/Graphics/SVG/1.1/DTD/svg11.dtd"><svg t="1708441786824" class="icon" viewBox="0 0 1024 1024" version="1.1" xmlns="http://www.w3.org/2000/svg" p-id="6904" xmlns:xlink="http://www.w3.org/1999/xlink" width="128" height="128"><path d="M430.7968 264.6016v-70.656a29.952 29.952 0 1 0-59.904 0v70.656H292.8128a29.2864 29.2864 0 1 0 0 58.624h78.08v74.6496a29.952 29.952 0 0 0 59.904 0V323.2256h76.3904a29.2864 29.2864 0 0 0 0-58.624H430.7968z" fill="#ffffff" p-id="6905"></path><path d="M852.992 935.9872V416.9728a24.3712 24.3712 0 0 0-24.3712-24.4224h-121.2928V319.488h133.4272c47.104 0 85.3504 38.1952 85.3504 85.3504v531.2h61.4912a36.608 36.608 0 1 1 0 73.216H36.864a36.608 36.608 0 1 1 0-73.216h60.928V78.8992C97.792 35.328 133.12 0 176.7424 0h451.7888c43.52 0 78.848 35.328 78.848 78.9504v857.088h145.664zM583.0144 73.216H222.1568a51.2 51.2 0 0 0-51.2 51.2v811.776h463.2576V124.3648a51.2 51.2 0 0 0-51.2-51.2z m-21.9648 509.2864c0 20.1728-16.384 36.5568-36.5568 36.5568H280.6784a36.5568 36.5568 0 1 1 0-73.1136h243.8144c20.1728 0 36.5568 16.384 36.5568 36.5568z m0 189.696c0 20.224-16.384 36.608-36.5568 36.608H280.6784a36.5568 36.5568 0 0 1 0-73.1648h243.8144c20.1728 0 36.5568 16.384 36.5568 36.5568z" fill="#ffffff" p-id="6906"></path></svg>