<svg t="1708930951281" class="icon" viewBox="0 0 1024 1024" version="1.1" xmlns="http://www.w3.org/2000/svg"
p-id="6243" width="64" height="64">
<path
    d="M813.302519 848.507259v-657.635555l-92.197926-61.525334L385.042963 279.324444v116.081778l-185.713778 64.663704v388.437333h-18.962963v46.146371h60.624593V486.987852l246.347852-80.734815v488.400593h170.552889v-49.986371H619.994074V398.535111l-89.419852-53.845333-100.096 34.853926v-73.320297l242.574222-107.690666v696.101926h170.581334v-46.165334h-30.331259z"
    p-id="6244" fill="#cdcdcd"></path>
<path
    d="M271.322074 794.661926l178.119111-23.096889v-76.904296l-178.119111 26.917926zM271.322074 894.634667l178.119111-3.858963v-76.913778l-178.119111 7.717926zM373.902222 660.764444h-31.469037V530.574222l31.469037-9.633185z"
    p-id="6245" fill="#cdcdcd"></path>
<path d="M280.282074 615.860148v-21.352296l160.208593-29.240889v30.776889z" p-id="6246" fill="#cdcdcd">
</path>
</svg>