<?xml version="1.0" standalone="no"?><!DOCTYPE svg PUBLIC "-//W3C//DTD SVG 1.1//EN" "http://www.w3.org/Graphics/SVG/1.1/DTD/svg11.dtd"><svg t="1706430570735" class="icon" viewBox="0 0 1024 1024" version="1.1" xmlns="http://www.w3.org/2000/svg" p-id="7355" xmlns:xlink="http://www.w3.org/1999/xlink" width="128" height="128"><path d="M483.555556 910.222222v-113.777778H170.666667a113.777778 113.777778 0 0 1-113.777778-113.777777V170.666667a113.777778 113.777778 0 0 1 113.777778-113.777778h682.666666a113.777778 113.777778 0 0 1 113.777778 113.777778v512a113.777778 113.777778 0 0 1-113.777778 113.777777H540.444444v113.777778h170.666667a28.444444 28.444444 0 0 1 0 56.888889h-398.222222a28.444444 28.444444 0 0 1 0-56.888889zM170.666667 113.777778a56.888889 56.888889 0 0 0-56.888889 56.888889v512a56.888889 56.888889 0 0 0 56.888889 56.888889h682.666666a56.888889 56.888889 0 0 0 56.888889-56.888889V170.666667a56.888889 56.888889 0 0 0-56.888889-56.888889z m56.888889 512a28.444444 28.444444 0 0 1 0-56.888889h568.888888a28.444444 28.444444 0 0 1 0 56.888889z m247.466666-150.755556a27.306667 27.306667 0 0 1-39.822222 0 27.875556 27.875556 0 0 1 0-39.253333l227.555556-227.555556a27.875556 27.875556 0 0 1 39.822222 0 28.444444 28.444444 0 0 1 0 40.391111z" fill="#ffffff" p-id="7356"></path></svg>