<svg t="1708931292371" class="icon" viewBox="0 0 1593 1024" version="1.1" xmlns="http://www.w3.org/2000/svg"
p-id="7336" width="64" height="64">
<path d="M1126.798909 792.060612c40.138905 13.853543-39.775208-13.853543 0 0z" p-id="7337" fill="#cdcdcd">
</path>
<path
    d="M1126.798909 792.060612c-47.974918-16.531674-99.818248-17.755018-147.793167-34.452009-14.580937-4.959502-43.34605-11.010095-49.363578-27.707086a201.421918 201.421918 0 0 1-6.61267-52.570724q-1.058027-20.234769-1.058027-40.502601c0-8.894041 22.747584-27.707086 27.707086-35.873733a270.094492 270.094492 0 0 0 24.499941-111.19204c30.914231 8.530344 34.815706-48.669249 40.138904-66.126697 3.901475-12.068122 27.707086-95.18938-9.224674-83.848651a149.380208 149.380208 0 0 0 14.91157-52.207027 313.837302 313.837302 0 0 0-3.901475-139.62652A219.970456 219.970456 0 0 0 805.423164 0.821624a225.855732 225.855732 0 0 0-225.591225 134.270258 293.205773 293.205773 0 0 0-9.919005 140.32085 175.797823 175.797823 0 0 0 16.531674 64.308212c-34.452009-10.315765-15.969597 62.820362-12.068122 75.682004 5.686896 18.118715 10.646398 83.121258 42.982353 74.26028a508.282853 508.282853 0 0 0 13.853543 86.328403 129.112375 129.112375 0 0 0 29.12881 49.363579c6.381226 7.10862 9.588371 7.80295 9.224674 17.060688a354.670537 354.670537 0 0 1-6.61267 84.542981c-7.10862 27.012756-66.424267 38.353484-90.229877 43.34605-63.944516 13.225339-122.929529 19.176742-176.194583 58.985013a236.70051 236.70051 0 0 0-94.495049 194.313298h987.569149a242.056773 242.056773 0 0 0-162.704737-231.608755z"
    p-id="7338" fill="#cdcdcd"></path>
<path
    d="M395.371519 748.383929l5.686896-2.843448a21.094416 21.094416 0 0 0-2.843448 1.421724 10.613335 10.613335 0 0 0-2.843448 1.421724z"
    p-id="7339" fill="#cdcdcd"></path>
<path
    d="M395.371519 748.350865c-12.068122 6.050593-26.649059 13.489846 2.843448-1.421724l2.843448-1.421724a224.830768 224.830768 0 0 1 76.045701-16.69699c9.919004-1.058027 14.580937-7.80295 7.10862-17.391322-14.21724-18.118715-63.217122-21.656493-83.848652-29.757013a22.21857 22.21857 0 0 1-17.391321-23.805611c-0.363697-6.381226-3.901475-34.815706 1.058027-39.444574 3.537778-3.537778 25.921665-2.116054 30.914231-2.843448a250.454863 250.454863 0 0 0 60.04304-14.21724 109.869506 109.869506 0 0 0 23.144344-12.068122c8.530344-6.381226-6.381226-22.02019-10.315765-30.550534a240.304415 240.304415 0 0 1-19.176742-84.906678 1382.378591 1382.378591 0 0 0-5.323199-171.565715c-15.969597-87.022733-83.121258-130.732479-168.623076-130.732479a153.017176 153.017176 0 0 0-134.633954 64.308213c-32.666588 50.785303-30.914231 114.035488-29.12881 171.929411a581.71655 581.71655 0 0 1-2.116054 99.454551 209.191805 209.191805 0 0 1-10.315765 41.560629c-3.901475 10.315765-23.805611 35.873733-15.969597 41.196932a192.06499 192.06499 0 0 0 114.729819 25.227335 141.676447 141.676447 0 0 1-2.116055 56.207692c-9.919004 25.591032-84.179285 32.335955-106.563171 39.676018a147.991547 147.991547 0 0 0-108.348593 142.172397h282.427121c4.628869 0 22.383887-33.063348 27.343389-38.353484a311.787374 311.787374 0 0 1 85.601009-66.424266z m1087.056764-37.659153c-28.765113-9.224674-84.179285-12.068122-104.810814-36.93176-10.315765-12.431819-4.628869-44.04038-3.537778-58.985014a225.855732 225.855732 0 0 0 48.669249-3.306334 218.647922 218.647922 0 0 0 42.618656-9.919005 127.657588 127.657588 0 0 0 18.813045-8.530344c13.853543-8.166647 7.472317-9.588371 0.363697-21.656493-38.717181-65.002543-21.32586-147.42947-23.144344-218.813239-1.421724-59.315647-17.060688-124.31819-71.053136-157.712171a203.571035 203.571035 0 0 0-172.987438-9.919005c-150.636615 60.406737-61.828461 260.043234-113.308094 374.409356-8.894041 19.176742-21.656493 25.921665 0.69433 37.295457a173.450325 173.450325 0 0 0 39.444574 13.853543 314.961456 314.961456 0 0 0 63.217122 8.530344 176.029266 176.029266 0 0 1 0 49.363579c-3.901475 17.391321-41.924326 22.383887-56.207692 26.450679s-38.717181 4.959502-45.8258 20.234769c-10.646398 22.747584 35.179403 17.060688 46.553194 19.176742a222.08651 222.08651 0 0 1 97.338497 50.090972 159.233085 159.233085 0 0 1 57.893923 69.433032h284.906872a150.206791 150.206791 0 0 0-109.770316-142.800601z"
    p-id="7340" fill="#cdcdcd"></path>
</svg>