<?xml version="1.0" standalone="no"?><!DOCTYPE svg PUBLIC "-//W3C//DTD SVG 1.1//EN" "http://www.w3.org/Graphics/SVG/1.1/DTD/svg11.dtd"><svg t="1706430512801" class="icon" viewBox="0 0 1024 1024" version="1.1" xmlns="http://www.w3.org/2000/svg" p-id="6318" xmlns:xlink="http://www.w3.org/1999/xlink" width="128" height="128"><path d="M1012.622222 455.111111l-68.266666 17.066667c-22.755556-85.333333-91.022222-147.911111-176.355556-170.666667l-39.822222-11.377778-11.377778-39.822222c-28.444444-108.088889-125.155556-187.733333-238.933333-187.733333C341.333333 62.577778 233.244444 170.666667 233.244444 307.2v22.755556l5.688889 56.888888-56.888889 11.377778c-62.577778 22.755556-113.777778 85.333333-113.777777 159.288889v11.377778c0 85.333333 73.955556 159.288889 159.288889 159.288889h113.777777V796.444444H227.555556c-125.155556 0-227.555556-102.4-227.555556-227.555555v-11.377778C0 455.111111 73.955556 364.088889 170.666667 341.333333v-28.444444C170.666667 142.222222 312.888889 0 483.555556 0c147.911111 0 267.377778 102.4 301.511111 238.933333 108.088889 22.755556 199.111111 108.088889 227.555555 216.177778z" fill="#ffffff" p-id="6319"></path><path d="M1024 722.488889H483.555556v-68.266667h358.4l-79.644445-68.266666 45.511111-51.2zM654.222222 1024l-193.422222-193.422222h534.755556v68.266666H625.777778l73.955555 73.955556z" fill="#ffffff" p-id="6320"></path></svg>