<?xml version="1.0" standalone="no"?><!DOCTYPE svg PUBLIC "-//W3C//DTD SVG 1.1//EN" "http://www.w3.org/Graphics/SVG/1.1/DTD/svg11.dtd"><svg t="1705812175918" class="icon" viewBox="0 0 1024 1024" version="1.1" xmlns="http://www.w3.org/2000/svg" p-id="4273" width="32" height="32" xmlns:xlink="http://www.w3.org/1999/xlink"><path d="M875.172 663.352a49.152 49.152 0 0 1-30.234-40.893V449.024c0-164.122-148.541-272.963-212.382-307.118-3.508-20.367-12.662-51.144-36.552-74.844a110.807 110.807 0 0 0-80.067-31.222h-2.77a110.817 110.817 0 0 0-80.071 31.232c-23.89 23.7-33.045 54.482-36.552 74.85-63.82 34.16-212.367 143-212.367 307.102v172.861a49.1 49.1 0 0 1-30.24 41.472c-58.48 26.624-64.332 76.995-50.308 115.277 6.84 18.673 22.323 36.9 127.544 36.9h89.416c5.555 96.072 89.8 172.626 192.578 172.626s187.029-76.554 192.584-172.631h92.19c105.217 0 120.705-18.227 127.54-36.9 14.039-38.277 8.177-88.668-50.31-115.277z m-361.984 259c-66.294 0-120.801-47.073-126.387-106.823h252.78c-5.607 59.75-60.115 106.824-126.414 106.824z m284.774-172.63H231.178a396.718 396.718 0 0 1-68.126-4.608c-0.512-9.606 5.12-15.924 18.252-21.904a114.58 114.58 0 0 0 68.818-100.766v-173.42c0-145.541 160.128-243.062 189.594-254.976l20.613-8.105v-22.15c0.133-6.368 2.79-62.13 52.895-62.13h2.268c50.32-0.338 53.15 55.736 53.284 61.921v22.185l20.613 8.315c29.465 11.888 189.599 109.414 189.599 254.976v173.42A114.58 114.58 0 0 0 847.8 723.245c13.143 5.98 18.755 12.288 18.253 21.903a396.728 396.728 0 0 1-68.111 4.573z" fill="#8A8A8A" p-id="4274"></path></svg>